# xmcd CD database file
#
# Track frame offsets:
#    150
#    18931
#    35363
#    49728
#    67985
#    84252
#    102183
#    121816
#    136908
#    154624
#    175267
#    193567
#    212313
#
# Disc length: 3068  seconds
#
# Revision:1
# Processed by: cddbd v1.4PL0 Copyright (c) Steve Scherf et al.
# Submitted via: FMV V4.00 - www.f-m-v.com
#
DISCID=980bfa0d
DTITLE=Rise
DYEAR=1900
DGENRE=
TTITLE0=Sunshine
TTITLE1=Rise
TTITLE2=When a woman
TTITLE3=Tell me what you dream
TTITLE4=5 O'Clock
TTITLE5=Should I stay
TTITLE6=Over You
TTITLE7=Falling
TTITLE8=If you love me
TTITLE9=Independence day
TTITLE10=Gonna get better
TTITLE11=There's nothing I won't do for you
TTITLE12=Rise (Acoustic Version)
EXTD=
EXTD=
EXTD=
EXTD=
EXTD=
EXTD=
EXTD=
EXTD=
EXTD=
EXTD=
EXTD=
EXTD=
EXTD=
EXTT0=
EXTT1=
EXTT2=
EXTT3=
EXTT4=
EXTT5=
EXTT6=
EXTT7=
EXTT8=
EXTT9=
EXTT10=
EXTT11=
EXTT12=
PLAYORDER=
